<svg width="30" height="36" viewBox="0 0 30 36" fill="none" xmlns="http://www.w3.org/2000/svg">
<path d="M28.261 25.6649C26.0561 23.8011 24.7918 21.0768 24.7918 18.1908V14.125C24.7918 8.99324 20.9797 4.74508 16.0418 4.03345V2.45824C16.0418 1.65182 15.3883 1 14.5832 1C13.7784 1 13.125 1.65182 13.125 2.45824V4.03345C8.1855 4.74508 4.375 8.99324 4.375 14.125L4.375 18.1908C4.375 21.0768 3.11062 23.8011 0.89241 25.6764C0.325241 26.1621 0 26.8679 0 27.6145C0 29.022 1.14475 30.1668 2.55199 30.1668H26.6145C28.022 30.1668 29.1668 29.022 29.1668 27.6145C29.1668 26.8679 28.8415 26.1621 28.261 25.6649Z" fill="#E5E6E6"/>
<path d="M14.5832 36C17.2244 36 19.4338 34.1172 19.9412 31.625H9.22531C9.73293 34.1172 11.9423 36 14.5832 36Z" fill="#E5E6E6"/>
<circle cx="22" cy="6" r="6" fill="#FF4B5C"/>
<path d="M19.325 8V7.53C19.625 7.33 19.8783 7.14833 20.085 6.985C20.295 6.81833 20.4633 6.665 20.59 6.525C20.72 6.38167 20.8133 6.24667 20.87 6.12C20.93 5.99333 20.96 5.86667 20.96 5.74C20.96 5.58667 20.9133 5.46167 20.82 5.365C20.7267 5.265 20.595 5.215 20.425 5.215C20.2383 5.215 20.0917 5.27833 19.985 5.405C19.8817 5.53167 19.825 5.71167 19.815 5.945L19.22 5.72C19.2367 5.49333 19.2967 5.30167 19.4 5.145C19.5067 4.985 19.65 4.86333 19.83 4.78C20.0133 4.69333 20.225 4.65 20.465 4.65C20.665 4.65 20.8383 4.67833 20.985 4.735C21.135 4.79167 21.26 4.87 21.36 4.97C21.46 5.06667 21.5333 5.17833 21.58 5.305C21.63 5.43167 21.655 5.56333 21.655 5.7C21.655 5.91333 21.6017 6.115 21.495 6.305C21.3917 6.495 21.2317 6.68333 21.015 6.87C20.7983 7.05667 20.5233 7.25333 20.19 7.46V7.465C20.24 7.46167 20.3 7.45833 20.37 7.455C20.4433 7.45167 20.5183 7.45 20.595 7.45C20.6717 7.44667 20.7383 7.445 20.795 7.445H21.705V8H19.325ZM23.3841 8.05C23.0941 8.05 22.8491 7.99 22.6491 7.87C22.4524 7.75 22.2908 7.56667 22.1641 7.32L22.7841 7.01C22.8274 7.15667 22.8958 7.275 22.9891 7.365C23.0824 7.455 23.2191 7.5 23.3991 7.5C23.5224 7.5 23.6274 7.47833 23.7141 7.435C23.8008 7.39167 23.8674 7.32833 23.9141 7.245C23.9641 7.16167 23.9891 7.06 23.9891 6.94C23.9891 6.82 23.9658 6.72 23.9191 6.64C23.8758 6.55667 23.8124 6.495 23.7291 6.455C23.6458 6.41167 23.5408 6.39 23.4141 6.39C23.3274 6.39 23.2458 6.39833 23.1691 6.415C23.0958 6.43167 23.0291 6.45833 22.9691 6.495C22.9091 6.52833 22.8558 6.57333 22.8091 6.63L22.2691 6.53L22.4741 4.7H24.4691V5.255H22.9941L22.8941 6.06L22.8791 6.125H22.8891C22.9591 6.045 23.0541 5.98333 23.1741 5.94C23.2974 5.89667 23.4374 5.875 23.5941 5.875C23.8108 5.875 23.9958 5.91833 24.1491 6.005C24.3024 6.09167 24.4208 6.21333 24.5041 6.37C24.5874 6.52333 24.6291 6.7 24.6291 6.9C24.6291 7.09 24.5974 7.25833 24.5341 7.405C24.4708 7.54833 24.3808 7.66833 24.2641 7.765C24.1508 7.85833 24.0191 7.93 23.8691 7.98C23.7191 8.02667 23.5574 8.05 23.3841 8.05Z" fill="white"/>
</svg>
