<svg width="26" height="25" viewBox="0 0 26 25" fill="none" xmlns="http://www.w3.org/2000/svg">
<path d="M12.4724 12.4719C14.6037 12.4719 16.1502 11.4214 16.945 9.43398C17.5548 7.90868 17.6371 6.10941 17.6371 4.5505C17.6371 1.70112 15.7064 0 12.4724 0C9.23847 0 7.30774 1.70108 7.30774 4.5505C7.30774 6.10941 7.39001 7.90868 7.99989 9.43398C8.79464 11.4214 10.3412 12.4719 12.4724 12.4719Z" fill="#D5D6D7"/>
<path d="M14.3892 13.8181H10.5261C6.82685 13.8181 3.81738 16.8277 3.81738 20.5268V20.9853C3.81738 23.199 5.61832 25 7.83206 25H17.0833C19.297 25 21.098 23.199 21.098 20.9853V20.5268C21.0979 16.8276 18.0884 13.8181 14.3892 13.8181Z" fill="#D5D6D7"/>
<path d="M19.2004 4.55056C19.2004 7.14995 18.9414 9.99987 17.2153 11.9875C17.6458 12.1564 18.1282 12.2429 18.6589 12.2429C20.2732 12.2429 21.4446 11.4474 22.0464 9.94237C22.4939 8.82313 22.5543 7.51806 22.5543 6.38901C22.5543 4.4084 21.297 3.06498 19.0195 2.94011C19.1392 3.44618 19.2004 3.98445 19.2004 4.55056Z" fill="#D5D6D7"/>
<path d="M6.37515 12.2429C6.87844 12.2429 7.33859 12.1656 7.75194 12.0135C6.00357 10.0233 5.74445 7.14716 5.74445 4.55056C5.74445 3.98659 5.80522 3.45023 5.92404 2.94577C3.82412 3.09214 2.47968 4.32251 2.47968 6.38896C2.47968 7.51796 2.54001 8.82308 2.98756 9.94236C3.58943 11.4474 4.76079 12.2429 6.37515 12.2429Z" fill="#D5D6D7"/>
<path d="M2.25405 20.5268C2.25405 17.5136 3.87368 14.8719 6.28797 13.4257H4.99233C2.23959 13.4257 0 15.6653 0 18.4181V18.7438C0 20.1734 0.979657 21.3785 2.3029 21.7231C2.24486 21.286 2.25405 21.019 2.25405 20.5268Z" fill="#D5D6D7"/>
<path d="M20.0206 13.4257H18.628C21.0419 14.872 22.6612 17.5139 22.6612 20.5268C22.6612 21.0143 22.6711 21.2941 22.609 21.7469C23.983 21.4384 25.0129 20.2095 25.0129 18.7438V18.4181C25.0129 15.6653 22.7733 13.4257 20.0206 13.4257Z" fill="#D5D6D7"/>
</svg>
