<svg width="26" height="25" viewBox="0 0 26 25" fill="none" xmlns="http://www.w3.org/2000/svg">
<path d="M25.4998 12.1976C25.9679 11.6828 25.9227 10.8937 25.3989 10.4356L13.8581 0.337365C13.3343 -0.120727 12.4944 -0.111131 11.9816 0.358998L0.401626 10.974C-0.111181 11.4441 -0.13635 12.2322 0.3459 12.7335L0.636227 13.0358C1.11789 13.5371 1.89644 13.5969 2.37406 13.1689L3.23949 12.3939V23.7403C3.23949 24.4364 3.80356 25 4.4992 25H9.01311C9.70875 25 10.2728 24.4364 10.2728 23.7403V15.8024H16.0304V23.7403C16.0204 24.4359 16.5181 24.9995 17.2137 24.9995H21.9974C22.693 24.9995 23.2571 24.4359 23.2571 23.7398V12.5537C23.2571 12.5537 23.4961 12.7631 23.791 13.0223C24.0854 13.2809 24.7036 13.0735 25.1718 12.5582L25.4998 12.1976Z" fill="#52DBB2"/>
</svg>
