<svg width="31" height="25" viewBox="0 0 31 25" fill="none" xmlns="http://www.w3.org/2000/svg">
<path d="M18.0026 0H12.2161C11.6242 0 11.1445 0.47977 11.1445 1.07158V23.9212C11.1445 24.513 11.6242 24.9928 12.2161 24.9928H18.0026C18.5944 24.9928 19.0742 24.513 19.0742 23.9212V1.07158C19.0742 0.4797 18.5944 0 18.0026 0Z" fill="#D5D6D7"/>
<path d="M29.1827 13.3233H23.3962C22.8044 13.3233 22.3246 13.8031 22.3246 14.3949V23.9284C22.3246 24.5202 22.8044 25 23.3962 25H29.1827C29.7745 25 30.2543 24.5202 30.2543 23.9284V14.3949C30.2543 13.803 29.7745 13.3233 29.1827 13.3233Z" fill="#D5D6D7"/>
<path d="M6.85812 8.53693H1.07158C0.47977 8.53693 0 9.0167 0 9.60851V23.9141C0 24.5059 0.47977 24.9857 1.07158 24.9857H6.85812C7.44993 24.9857 7.9297 24.5059 7.9297 23.9141V9.60851C7.9297 9.0167 7.44993 8.53693 6.85812 8.53693Z" fill="#D5D6D7"/>
</svg>
