<svg width="25" height="25" viewBox="0 0 25 25" fill="none" xmlns="http://www.w3.org/2000/svg">
<path d="M24.196 17.5908L21.5027 14.8974C20.9842 14.379 20.295 14.0935 19.5618 14.0935C18.8286 14.0935 18.1394 14.379 17.621 14.8974L17.1273 15.3911C16.7494 15.769 16.2827 15.9527 15.7003 15.9527C15.7002 15.9527 15.7002 15.9527 15.7001 15.9527C13.5469 15.9526 10.4855 13.4758 9.4005 10.8564C9.02995 9.9619 8.76558 8.71831 9.60991 7.87391L10.1077 7.37616C10.6266 6.85739 10.912 6.1676 10.9117 5.43399C10.9113 4.70024 10.6251 4.01072 10.1057 3.49236L7.40956 0.801952C6.89141 0.284832 6.20286 0 5.47069 0C4.73756 0 4.04831 0.28545 3.52989 0.803876L2.1819 2.15186C-0.244902 4.57867 -0.662637 8.13257 1.00555 12.159C2.30224 15.2886 4.79319 18.4946 7.83973 20.9548C11.0702 23.5635 14.4776 25 17.4351 25H17.4367C19.5816 24.9997 21.4026 24.2659 22.8493 22.8192L24.1959 21.4725C24.7144 20.9541 24.9999 20.2648 24.9999 19.5317C25 18.7985 24.7144 18.1092 24.196 17.5908Z" fill="#D5D6D7"/>
</svg>
