<svg width="35" height="35" viewBox="0 0 35 35" fill="none" xmlns="http://www.w3.org/2000/svg">
<path d="M17.5684 0C7.95635 0 0 7.81963 0 17.4316C0 27.0437 7.95635 35 17.5684 35C27.1804 35 35 27.0437 35 17.4316C35 7.81963 27.1804 0 17.5684 0ZM26.7969 19.4824H19.6191V26.7969C19.6191 27.9275 18.6983 28.8477 17.5684 28.8477C16.4377 28.8477 15.5176 27.9275 15.5176 26.7969V19.4824H8.20312C7.07246 19.4824 6.15234 18.5623 6.15234 17.4316C6.15234 16.301 7.07246 15.3809 8.20312 15.3809H15.5176V8.20312C15.5176 7.07246 16.4377 6.15234 17.5684 6.15234C18.6983 6.15234 19.6191 7.07246 19.6191 8.20312V15.3809H26.7969C27.9269 15.3809 28.8477 16.301 28.8477 17.4316C28.8477 18.5623 27.9269 19.4824 26.7969 19.4824Z" fill="#7AE1C4"/>
</svg>
