<svg width="36" height="36" viewBox="0 0 36 36" fill="none" xmlns="http://www.w3.org/2000/svg">
<path d="M30.4559 28.3677L25.4559 23.3824C27.0691 21.3272 27.9444 18.7892 27.9412 16.1765C27.9412 13.8496 27.2512 11.5751 25.9585 9.64036C24.6658 7.70567 22.8284 6.19776 20.6786 5.30731C18.5289 4.41687 16.1634 4.18389 13.8813 4.63783C11.5992 5.09178 9.50291 6.21226 7.85758 7.85758C6.21226 9.50291 5.09178 11.5992 4.63783 13.8813C4.18389 16.1634 4.41687 18.5289 5.30731 20.6786C6.19776 22.8284 7.70567 24.6658 9.64036 25.9585C11.5751 27.2512 13.8496 27.9412 16.1765 27.9412C18.7892 27.9444 21.3272 27.0691 23.3824 25.4559L28.3677 30.4559C28.5044 30.5937 28.667 30.7031 28.8462 30.7778C29.0254 30.8525 29.2176 30.8909 29.4118 30.8909C29.6059 30.8909 29.7981 30.8525 29.9773 30.7778C30.1565 30.7031 30.3192 30.5937 30.4559 30.4559C30.5937 30.3192 30.7031 30.1565 30.7778 29.9773C30.8525 29.7981 30.8909 29.6059 30.8909 29.4118C30.8909 29.2176 30.8525 29.0254 30.7778 28.8462C30.7031 28.667 30.5937 28.5044 30.4559 28.3677ZM7.35296 16.1765C7.35296 14.4314 7.87045 12.7254 8.83999 11.2744C9.80953 9.82337 11.1876 8.69244 12.7999 8.02461C14.4122 7.35677 16.1863 7.18204 17.8979 7.5225C19.6095 7.86295 21.1817 8.70331 22.4157 9.93731C23.6497 11.1713 24.49 12.7435 24.8305 14.4551C25.1709 16.1667 24.9962 17.9408 24.3284 19.5531C23.6605 21.1654 22.5296 22.5434 21.0786 23.513C19.6276 24.4825 17.9216 25 16.1765 25C13.8363 25 11.592 24.0704 9.93731 22.4157C8.28257 20.7609 7.35296 18.5166 7.35296 16.1765Z" fill="#D5D6D7"/>
</svg>
